<mxfile host="app.diagrams.net" modified="2024-04-17T16:25:53.730Z" agent="Mozilla/5.0 (X11; Linux x86_64) AppleWebKit/537.36 (KHTML, like Gecko) Chrome/114.0.0.0 Safari/537.36 Edg/114.0.1823.82" etag="bsA3DPESMrlUZManQyYZ" version="24.2.3" type="device">
  <diagram name="Page-1" id="jTd0I6sCML7yI3xvNtrr">
    <mxGraphModel dx="1379" dy="834" grid="1" gridSize="10" guides="1" tooltips="1" connect="1" arrows="1" fold="1" page="1" pageScale="1" pageWidth="827" pageHeight="1169" math="0" shadow="0">
      <root>
        <mxCell id="0" />
        <mxCell id="1" parent="0" />
        <mxCell id="EVmhFIbDZhGXq_-Ax7C1-1" value="&lt;h1 style=&quot;margin-top: 0px;&quot;&gt;Underflow&lt;/h1&gt;&lt;p&gt;This diagram shows how to understand the unsigned number underfow&lt;/p&gt;" style="text;html=1;whiteSpace=wrap;overflow=hidden;rounded=0;" vertex="1" parent="1">
          <mxGeometry width="210" height="100" as="geometry" />
        </mxCell>
        <mxCell id="EVmhFIbDZhGXq_-Ax7C1-2" value="1" style="rounded=0;whiteSpace=wrap;html=1;" vertex="1" parent="1">
          <mxGeometry x="692.5" y="210" width="30" height="30" as="geometry" />
        </mxCell>
        <mxCell id="EVmhFIbDZhGXq_-Ax7C1-3" value="0" style="rounded=0;whiteSpace=wrap;html=1;" vertex="1" parent="1">
          <mxGeometry x="652.5" y="210" width="30" height="30" as="geometry" />
        </mxCell>
        <mxCell id="EVmhFIbDZhGXq_-Ax7C1-4" value="0" style="rounded=0;whiteSpace=wrap;html=1;" vertex="1" parent="1">
          <mxGeometry x="612.5" y="210" width="30" height="30" as="geometry" />
        </mxCell>
        <mxCell id="EVmhFIbDZhGXq_-Ax7C1-5" value="0" style="rounded=0;whiteSpace=wrap;html=1;" vertex="1" parent="1">
          <mxGeometry x="572.5" y="210" width="30" height="30" as="geometry" />
        </mxCell>
        <mxCell id="EVmhFIbDZhGXq_-Ax7C1-6" value="0" style="rounded=0;whiteSpace=wrap;html=1;" vertex="1" parent="1">
          <mxGeometry x="532.5" y="210" width="30" height="30" as="geometry" />
        </mxCell>
        <mxCell id="EVmhFIbDZhGXq_-Ax7C1-7" value="0" style="rounded=0;whiteSpace=wrap;html=1;" vertex="1" parent="1">
          <mxGeometry x="492.5" y="210" width="30" height="30" as="geometry" />
        </mxCell>
        <mxCell id="EVmhFIbDZhGXq_-Ax7C1-8" value="0" style="rounded=0;whiteSpace=wrap;html=1;" vertex="1" parent="1">
          <mxGeometry x="452.5" y="210" width="30" height="30" as="geometry" />
        </mxCell>
        <mxCell id="EVmhFIbDZhGXq_-Ax7C1-9" value="0" style="rounded=0;whiteSpace=wrap;html=1;" vertex="1" parent="1">
          <mxGeometry x="412.5" y="210" width="30" height="30" as="geometry" />
        </mxCell>
        <mxCell id="EVmhFIbDZhGXq_-Ax7C1-10" value="0" style="rounded=0;whiteSpace=wrap;html=1;" vertex="1" parent="1">
          <mxGeometry x="372.5" y="210" width="30" height="30" as="geometry" />
        </mxCell>
        <mxCell id="EVmhFIbDZhGXq_-Ax7C1-11" value="0" style="rounded=0;whiteSpace=wrap;html=1;" vertex="1" parent="1">
          <mxGeometry x="332.5" y="210" width="30" height="30" as="geometry" />
        </mxCell>
        <mxCell id="EVmhFIbDZhGXq_-Ax7C1-12" value="0" style="rounded=0;whiteSpace=wrap;html=1;" vertex="1" parent="1">
          <mxGeometry x="292.5" y="210" width="30" height="30" as="geometry" />
        </mxCell>
        <mxCell id="EVmhFIbDZhGXq_-Ax7C1-13" value="0" style="rounded=0;whiteSpace=wrap;html=1;" vertex="1" parent="1">
          <mxGeometry x="252.5" y="210" width="30" height="30" as="geometry" />
        </mxCell>
        <mxCell id="EVmhFIbDZhGXq_-Ax7C1-14" value="" style="endArrow=none;dashed=1;html=1;dashPattern=1 3;strokeWidth=2;rounded=0;" edge="1" parent="1">
          <mxGeometry width="50" height="50" relative="1" as="geometry">
            <mxPoint x="152.5" y="224.5" as="sourcePoint" />
            <mxPoint x="232.5" y="224.5" as="targetPoint" />
            <Array as="points">
              <mxPoint x="192.5" y="224.5" />
            </Array>
          </mxGeometry>
        </mxCell>
        <mxCell id="EVmhFIbDZhGXq_-Ax7C1-15" value="0" style="rounded=0;whiteSpace=wrap;html=1;" vertex="1" parent="1">
          <mxGeometry x="102.5" y="210" width="30" height="30" as="geometry" />
        </mxCell>
        <mxCell id="EVmhFIbDZhGXq_-Ax7C1-16" value="0" style="rounded=0;whiteSpace=wrap;html=1;" vertex="1" parent="1">
          <mxGeometry x="62.5" y="210" width="30" height="30" as="geometry" />
        </mxCell>
        <mxCell id="EVmhFIbDZhGXq_-Ax7C1-17" value="0" style="rounded=0;whiteSpace=wrap;html=1;fillColor=#f8cecc;strokeColor=#b85450;" vertex="1" parent="1">
          <mxGeometry x="22.5" y="210" width="30" height="30" as="geometry" />
        </mxCell>
        <mxCell id="EVmhFIbDZhGXq_-Ax7C1-19" value="0" style="text;html=1;align=center;verticalAlign=middle;whiteSpace=wrap;rounded=0;" vertex="1" parent="1">
          <mxGeometry x="695" y="270" width="25" height="30" as="geometry" />
        </mxCell>
        <mxCell id="EVmhFIbDZhGXq_-Ax7C1-20" value="1" style="text;html=1;align=center;verticalAlign=middle;whiteSpace=wrap;rounded=0;" vertex="1" parent="1">
          <mxGeometry x="655" y="270" width="25" height="30" as="geometry" />
        </mxCell>
        <mxCell id="EVmhFIbDZhGXq_-Ax7C1-21" value="2" style="text;html=1;align=center;verticalAlign=middle;whiteSpace=wrap;rounded=0;" vertex="1" parent="1">
          <mxGeometry x="612.5" y="270" width="25" height="30" as="geometry" />
        </mxCell>
        <mxCell id="EVmhFIbDZhGXq_-Ax7C1-22" value="62" style="text;html=1;align=center;verticalAlign=middle;whiteSpace=wrap;rounded=0;" vertex="1" parent="1">
          <mxGeometry x="65" y="270" width="25" height="30" as="geometry" />
        </mxCell>
        <mxCell id="EVmhFIbDZhGXq_-Ax7C1-23" value="63" style="text;html=1;align=center;verticalAlign=middle;whiteSpace=wrap;rounded=0;" vertex="1" parent="1">
          <mxGeometry x="27.5" y="270" width="25" height="30" as="geometry" />
        </mxCell>
        <mxCell id="EVmhFIbDZhGXq_-Ax7C1-24" value="Unsigned 1 = 0x1" style="text;html=1;align=center;verticalAlign=middle;whiteSpace=wrap;rounded=0;" vertex="1" parent="1">
          <mxGeometry x="22.5" y="160" width="100" height="30" as="geometry" />
        </mxCell>
        <mxCell id="EVmhFIbDZhGXq_-Ax7C1-25" value="1" style="rounded=0;whiteSpace=wrap;html=1;" vertex="1" parent="1">
          <mxGeometry x="690" y="530" width="30" height="30" as="geometry" />
        </mxCell>
        <mxCell id="EVmhFIbDZhGXq_-Ax7C1-26" value="1" style="rounded=0;whiteSpace=wrap;html=1;" vertex="1" parent="1">
          <mxGeometry x="650" y="530" width="30" height="30" as="geometry" />
        </mxCell>
        <mxCell id="EVmhFIbDZhGXq_-Ax7C1-27" value="1" style="rounded=0;whiteSpace=wrap;html=1;" vertex="1" parent="1">
          <mxGeometry x="610" y="530" width="30" height="30" as="geometry" />
        </mxCell>
        <mxCell id="EVmhFIbDZhGXq_-Ax7C1-28" value="1" style="rounded=0;whiteSpace=wrap;html=1;" vertex="1" parent="1">
          <mxGeometry x="570" y="530" width="30" height="30" as="geometry" />
        </mxCell>
        <mxCell id="EVmhFIbDZhGXq_-Ax7C1-29" value="1" style="rounded=0;whiteSpace=wrap;html=1;" vertex="1" parent="1">
          <mxGeometry x="530" y="530" width="30" height="30" as="geometry" />
        </mxCell>
        <mxCell id="EVmhFIbDZhGXq_-Ax7C1-30" value="1" style="rounded=0;whiteSpace=wrap;html=1;" vertex="1" parent="1">
          <mxGeometry x="490" y="530" width="30" height="30" as="geometry" />
        </mxCell>
        <mxCell id="EVmhFIbDZhGXq_-Ax7C1-31" value="1" style="rounded=0;whiteSpace=wrap;html=1;" vertex="1" parent="1">
          <mxGeometry x="450" y="530" width="30" height="30" as="geometry" />
        </mxCell>
        <mxCell id="EVmhFIbDZhGXq_-Ax7C1-32" value="1" style="rounded=0;whiteSpace=wrap;html=1;" vertex="1" parent="1">
          <mxGeometry x="410" y="530" width="30" height="30" as="geometry" />
        </mxCell>
        <mxCell id="EVmhFIbDZhGXq_-Ax7C1-33" value="1" style="rounded=0;whiteSpace=wrap;html=1;" vertex="1" parent="1">
          <mxGeometry x="370" y="530" width="30" height="30" as="geometry" />
        </mxCell>
        <mxCell id="EVmhFIbDZhGXq_-Ax7C1-34" value="1" style="rounded=0;whiteSpace=wrap;html=1;" vertex="1" parent="1">
          <mxGeometry x="330" y="530" width="30" height="30" as="geometry" />
        </mxCell>
        <mxCell id="EVmhFIbDZhGXq_-Ax7C1-35" value="1" style="rounded=0;whiteSpace=wrap;html=1;" vertex="1" parent="1">
          <mxGeometry x="290" y="530" width="30" height="30" as="geometry" />
        </mxCell>
        <mxCell id="EVmhFIbDZhGXq_-Ax7C1-36" value="1" style="rounded=0;whiteSpace=wrap;html=1;" vertex="1" parent="1">
          <mxGeometry x="250" y="530" width="30" height="30" as="geometry" />
        </mxCell>
        <mxCell id="EVmhFIbDZhGXq_-Ax7C1-37" value="" style="endArrow=none;dashed=1;html=1;dashPattern=1 3;strokeWidth=2;rounded=0;" edge="1" parent="1">
          <mxGeometry width="50" height="50" relative="1" as="geometry">
            <mxPoint x="150" y="544.5" as="sourcePoint" />
            <mxPoint x="230" y="544.5" as="targetPoint" />
            <Array as="points">
              <mxPoint x="190" y="544.5" />
            </Array>
          </mxGeometry>
        </mxCell>
        <mxCell id="EVmhFIbDZhGXq_-Ax7C1-38" value="1" style="rounded=0;whiteSpace=wrap;html=1;" vertex="1" parent="1">
          <mxGeometry x="100" y="530" width="30" height="30" as="geometry" />
        </mxCell>
        <mxCell id="EVmhFIbDZhGXq_-Ax7C1-39" value="1" style="rounded=0;whiteSpace=wrap;html=1;" vertex="1" parent="1">
          <mxGeometry x="60" y="530" width="30" height="30" as="geometry" />
        </mxCell>
        <mxCell id="EVmhFIbDZhGXq_-Ax7C1-40" value="1" style="rounded=0;whiteSpace=wrap;html=1;fillColor=#f8cecc;strokeColor=#b85450;" vertex="1" parent="1">
          <mxGeometry x="20" y="530" width="30" height="30" as="geometry" />
        </mxCell>
        <mxCell id="EVmhFIbDZhGXq_-Ax7C1-41" value="0" style="text;html=1;align=center;verticalAlign=middle;whiteSpace=wrap;rounded=0;" vertex="1" parent="1">
          <mxGeometry x="692.5" y="590" width="25" height="30" as="geometry" />
        </mxCell>
        <mxCell id="EVmhFIbDZhGXq_-Ax7C1-42" value="1" style="text;html=1;align=center;verticalAlign=middle;whiteSpace=wrap;rounded=0;" vertex="1" parent="1">
          <mxGeometry x="652.5" y="590" width="25" height="30" as="geometry" />
        </mxCell>
        <mxCell id="EVmhFIbDZhGXq_-Ax7C1-43" value="2" style="text;html=1;align=center;verticalAlign=middle;whiteSpace=wrap;rounded=0;" vertex="1" parent="1">
          <mxGeometry x="610" y="590" width="25" height="30" as="geometry" />
        </mxCell>
        <mxCell id="EVmhFIbDZhGXq_-Ax7C1-44" value="62" style="text;html=1;align=center;verticalAlign=middle;whiteSpace=wrap;rounded=0;" vertex="1" parent="1">
          <mxGeometry x="62.5" y="590" width="25" height="30" as="geometry" />
        </mxCell>
        <mxCell id="EVmhFIbDZhGXq_-Ax7C1-45" value="63" style="text;html=1;align=center;verticalAlign=middle;whiteSpace=wrap;rounded=0;" vertex="1" parent="1">
          <mxGeometry x="25" y="590" width="25" height="30" as="geometry" />
        </mxCell>
        <mxCell id="EVmhFIbDZhGXq_-Ax7C1-46" value="Unsigned 18446744073709551615 = 0xFFFFFFFFFFFFFFFF" style="text;html=1;align=center;verticalAlign=middle;whiteSpace=wrap;rounded=0;" vertex="1" parent="1">
          <mxGeometry x="20" y="480" width="350" height="30" as="geometry" />
        </mxCell>
        <mxCell id="EVmhFIbDZhGXq_-Ax7C1-47" value="0" style="rounded=0;whiteSpace=wrap;html=1;" vertex="1" parent="1">
          <mxGeometry x="690" y="380" width="30" height="30" as="geometry" />
        </mxCell>
        <mxCell id="EVmhFIbDZhGXq_-Ax7C1-48" value="0" style="rounded=0;whiteSpace=wrap;html=1;" vertex="1" parent="1">
          <mxGeometry x="650" y="380" width="30" height="30" as="geometry" />
        </mxCell>
        <mxCell id="EVmhFIbDZhGXq_-Ax7C1-49" value="0" style="rounded=0;whiteSpace=wrap;html=1;" vertex="1" parent="1">
          <mxGeometry x="610" y="380" width="30" height="30" as="geometry" />
        </mxCell>
        <mxCell id="EVmhFIbDZhGXq_-Ax7C1-50" value="0" style="rounded=0;whiteSpace=wrap;html=1;" vertex="1" parent="1">
          <mxGeometry x="570" y="380" width="30" height="30" as="geometry" />
        </mxCell>
        <mxCell id="EVmhFIbDZhGXq_-Ax7C1-51" value="0" style="rounded=0;whiteSpace=wrap;html=1;" vertex="1" parent="1">
          <mxGeometry x="530" y="380" width="30" height="30" as="geometry" />
        </mxCell>
        <mxCell id="EVmhFIbDZhGXq_-Ax7C1-52" value="0" style="rounded=0;whiteSpace=wrap;html=1;" vertex="1" parent="1">
          <mxGeometry x="490" y="380" width="30" height="30" as="geometry" />
        </mxCell>
        <mxCell id="EVmhFIbDZhGXq_-Ax7C1-53" value="0" style="rounded=0;whiteSpace=wrap;html=1;" vertex="1" parent="1">
          <mxGeometry x="450" y="380" width="30" height="30" as="geometry" />
        </mxCell>
        <mxCell id="EVmhFIbDZhGXq_-Ax7C1-54" value="0" style="rounded=0;whiteSpace=wrap;html=1;" vertex="1" parent="1">
          <mxGeometry x="410" y="380" width="30" height="30" as="geometry" />
        </mxCell>
        <mxCell id="EVmhFIbDZhGXq_-Ax7C1-55" value="0" style="rounded=0;whiteSpace=wrap;html=1;" vertex="1" parent="1">
          <mxGeometry x="370" y="380" width="30" height="30" as="geometry" />
        </mxCell>
        <mxCell id="EVmhFIbDZhGXq_-Ax7C1-56" value="0" style="rounded=0;whiteSpace=wrap;html=1;" vertex="1" parent="1">
          <mxGeometry x="330" y="380" width="30" height="30" as="geometry" />
        </mxCell>
        <mxCell id="EVmhFIbDZhGXq_-Ax7C1-57" value="0" style="rounded=0;whiteSpace=wrap;html=1;" vertex="1" parent="1">
          <mxGeometry x="290" y="380" width="30" height="30" as="geometry" />
        </mxCell>
        <mxCell id="EVmhFIbDZhGXq_-Ax7C1-58" value="0" style="rounded=0;whiteSpace=wrap;html=1;" vertex="1" parent="1">
          <mxGeometry x="250" y="380" width="30" height="30" as="geometry" />
        </mxCell>
        <mxCell id="EVmhFIbDZhGXq_-Ax7C1-59" value="" style="endArrow=none;dashed=1;html=1;dashPattern=1 3;strokeWidth=2;rounded=0;" edge="1" parent="1">
          <mxGeometry width="50" height="50" relative="1" as="geometry">
            <mxPoint x="150" y="394.5" as="sourcePoint" />
            <mxPoint x="230" y="394.5" as="targetPoint" />
            <Array as="points">
              <mxPoint x="190" y="394.5" />
            </Array>
          </mxGeometry>
        </mxCell>
        <mxCell id="EVmhFIbDZhGXq_-Ax7C1-60" value="0" style="rounded=0;whiteSpace=wrap;html=1;" vertex="1" parent="1">
          <mxGeometry x="100" y="380" width="30" height="30" as="geometry" />
        </mxCell>
        <mxCell id="EVmhFIbDZhGXq_-Ax7C1-61" value="0" style="rounded=0;whiteSpace=wrap;html=1;" vertex="1" parent="1">
          <mxGeometry x="60" y="380" width="30" height="30" as="geometry" />
        </mxCell>
        <mxCell id="EVmhFIbDZhGXq_-Ax7C1-62" value="0" style="rounded=0;whiteSpace=wrap;html=1;fillColor=#f8cecc;strokeColor=#b85450;" vertex="1" parent="1">
          <mxGeometry x="20" y="380" width="30" height="30" as="geometry" />
        </mxCell>
        <mxCell id="EVmhFIbDZhGXq_-Ax7C1-63" value="0" style="text;html=1;align=center;verticalAlign=middle;whiteSpace=wrap;rounded=0;" vertex="1" parent="1">
          <mxGeometry x="692.5" y="440" width="25" height="30" as="geometry" />
        </mxCell>
        <mxCell id="EVmhFIbDZhGXq_-Ax7C1-64" value="1" style="text;html=1;align=center;verticalAlign=middle;whiteSpace=wrap;rounded=0;" vertex="1" parent="1">
          <mxGeometry x="652.5" y="440" width="25" height="30" as="geometry" />
        </mxCell>
        <mxCell id="EVmhFIbDZhGXq_-Ax7C1-65" value="2" style="text;html=1;align=center;verticalAlign=middle;whiteSpace=wrap;rounded=0;" vertex="1" parent="1">
          <mxGeometry x="610" y="440" width="25" height="30" as="geometry" />
        </mxCell>
        <mxCell id="EVmhFIbDZhGXq_-Ax7C1-66" value="62" style="text;html=1;align=center;verticalAlign=middle;whiteSpace=wrap;rounded=0;" vertex="1" parent="1">
          <mxGeometry x="62.5" y="440" width="25" height="30" as="geometry" />
        </mxCell>
        <mxCell id="EVmhFIbDZhGXq_-Ax7C1-67" value="63" style="text;html=1;align=center;verticalAlign=middle;whiteSpace=wrap;rounded=0;" vertex="1" parent="1">
          <mxGeometry x="25" y="440" width="25" height="30" as="geometry" />
        </mxCell>
        <mxCell id="EVmhFIbDZhGXq_-Ax7C1-69" value="Unsigned 0 = 0x0" style="text;html=1;align=center;verticalAlign=middle;whiteSpace=wrap;rounded=0;" vertex="1" parent="1">
          <mxGeometry x="27.5" y="340" width="100" height="30" as="geometry" />
        </mxCell>
        <mxCell id="EVmhFIbDZhGXq_-Ax7C1-70" value="The sign bit is in red color, so when a unsigned 0 underflow, it will flip the signed bit to 1, and then flip all the other bits, then add one to be the complement format!" style="text;html=1;align=center;verticalAlign=middle;whiteSpace=wrap;rounded=0;" vertex="1" parent="1">
          <mxGeometry x="400" y="40" width="322" height="80" as="geometry" />
        </mxCell>
        <mxCell id="EVmhFIbDZhGXq_-Ax7C1-76" value="Signed 1 = 0x1" style="text;html=1;align=center;verticalAlign=middle;whiteSpace=wrap;rounded=0;" vertex="1" parent="1">
          <mxGeometry x="450" y="160" width="100" height="30" as="geometry" />
        </mxCell>
        <mxCell id="EVmhFIbDZhGXq_-Ax7C1-77" value="Signed 0 = 0x1" style="text;html=1;align=center;verticalAlign=middle;whiteSpace=wrap;rounded=0;" vertex="1" parent="1">
          <mxGeometry x="455" y="340" width="100" height="30" as="geometry" />
        </mxCell>
        <mxCell id="EVmhFIbDZhGXq_-Ax7C1-78" value="Signed -1 in&amp;nbsp;complement" style="text;html=1;align=center;verticalAlign=middle;whiteSpace=wrap;rounded=0;" vertex="1" parent="1">
          <mxGeometry x="457.5" y="480" width="142.5" height="30" as="geometry" />
        </mxCell>
      </root>
    </mxGraphModel>
  </diagram>
</mxfile>
